<?xml version="1.0" standalone="no"?>
<!DOCTYPE svg PUBLIC "-//W3C//DTD SVG 20010904//EN"
 "http://www.w3.org/TR/2001/REC-SVG-20010904/DTD/svg10.dtd">
<svg version="1.0" xmlns="http://www.w3.org/2000/svg"
 width="506.000000pt" height="506.000000pt" viewBox="0 0 506.000000 506.000000"
 preserveAspectRatio="xMidYMid meet">
<metadata>
Created by potrace 1.14, written by Peter Selinger 2001-2017
</metadata>
<g transform="translate(0.000000,506.000000) scale(0.100000,-0.100000)"
fill="#000000" stroke="none">
<path d="M4833 5049 c-18 -5 -33 -14 -33 -19 0 -5 -15 -16 -32 -24 -18 -7 -51
-30 -73 -51 -22 -20 -41 -32 -43 -26 -5 14 -72 -21 -147 -76 -33 -25 -80 -56
-105 -70 -121 -65 -147 -83 -182 -124 -21 -24 -38 -47 -38 -51 0 -13 44 -53
60 -54 8 -1 29 -2 47 -3 24 -1 36 -9 51 -35 l20 -34 -22 -20 c-13 -10 -43 -22
-67 -26 -24 -4 -64 -20 -88 -36 -24 -17 -50 -30 -58 -30 -52 0 -252 -87 -236
-103 3 -4 -3 -7 -15 -7 -12 0 -22 -4 -22 -9 0 -5 -9 -11 -20 -14 -11 -3 -20
-10 -20 -17 0 -6 4 -9 9 -6 17 11 43 -6 38 -25 -3 -12 0 -19 8 -19 20 0 30
-21 14 -31 -18 -11 -81 -9 -96 3 -7 6 -14 5 -18 -2 -4 -6 1 -18 11 -26 18 -13
18 -15 2 -28 -10 -7 -18 -18 -18 -24 0 -6 -6 -12 -12 -15 -7 -3 3 -4 22 -3 29
1 36 -3 38 -22 2 -13 -2 -30 -9 -38 -6 -8 -13 -31 -15 -50 -1 -20 -4 -37 -6
-38 -15 -7 -141 -67 -171 -81 -37 -16 -83 -25 -232 -45 -38 -6 -83 -13 -100
-17 -16 -4 -64 -7 -105 -8 -68 0 -75 -2 -75 -20 0 -17 -11 -21 -91 -30 -77
-10 -95 -16 -123 -40 -17 -16 -29 -35 -27 -42 3 -7 1 -13 -4 -13 -6 0 -10 -8
-11 -17 0 -11 -3 -13 -6 -5 -2 6 -12 12 -21 11 -11 0 -12 -2 -4 -6 6 -2 12 -9
12 -14 0 -6 -5 -7 -10 -4 -5 3 -10 2 -10 -4 0 -19 20 -22 37 -6 13 13 18 14
24 3 5 -7 4 -17 -1 -22 -5 -5 -3 -15 6 -24 8 -8 13 -20 10 -28 -3 -8 8 -17 29
-24 18 -6 36 -17 39 -25 3 -8 11 -15 17 -15 8 0 8 4 -1 15 -10 12 -10 15 1 15
37 -1 92 -29 109 -57 43 -71 130 -113 254 -122 88 -6 90 -7 97 -34 4 -16 18
-43 32 -60 13 -18 32 -49 42 -70 26 -56 69 -83 150 -97 133 -22 151 -26 165
-36 8 -5 44 -16 80 -25 49 -12 65 -20 64 -32 -1 -11 6 -17 21 -17 13 0 25 -4
27 -9 2 -5 20 -18 42 -29 l39 -21 -28 -7 -28 -7 41 -16 c22 -9 60 -37 84 -64
24 -26 49 -47 56 -47 6 0 17 -9 24 -20 7 -11 21 -20 30 -20 10 0 22 -9 28 -20
6 -11 20 -20 31 -20 12 0 19 -5 16 -12 -2 -8 -18 -12 -42 -10 -27 2 -36 0 -32
-10 3 -9 20 -12 56 -10 38 2 51 -1 51 -11 0 -10 -8 -13 -25 -9 -36 6 -33 -23
5 -43 28 -14 57 -51 52 -68 -1 -4 5 -7 14 -7 22 0 47 -28 41 -45 -3 -7 -2 -28
3 -44 8 -28 6 -31 -13 -31 -27 0 -57 -19 -41 -26 12 -5 7 -51 -8 -60 -5 -3
-23 -7 -41 -10 -18 -2 -45 -8 -62 -12 -27 -8 -23 -10 35 -17 93 -11 118 -23
53 -26 -29 -1 -58 -2 -65 -3 -21 -2 -20 -24 2 -36 33 -17 14 -30 -48 -31 -31
-1 -47 -4 -34 -6 27 -5 28 -12 5 -29 -17 -13 -17 -13 0 -14 24 0 22 -20 -3
-20 -11 0 -20 -4 -20 -9 0 -5 9 -7 20 -4 16 4 19 2 14 -11 -3 -9 -1 -16 5 -16
6 0 11 7 11 15 0 20 24 19 44 -1 9 -8 16 -11 16 -6 0 5 11 12 25 14 18 4 26 0
32 -16 10 -32 9 -50 -4 -64 -7 -7 -13 -21 -12 -30 0 -12 3 -10 10 6 5 15 13
20 21 16 9 -6 9 -9 0 -12 -7 -2 -10 -8 -6 -13 3 -5 0 -9 -5 -9 -6 0 -11 -7
-11 -16 0 -9 5 -12 13 -8 6 4 9 4 5 -1 -4 -4 4 -17 18 -28 17 -13 22 -23 15
-30 -5 -5 -7 -16 -4 -23 7 -19 -27 -31 -38 -13 -6 10 -9 8 -10 -11 -1 -17 -3
-19 -6 -7 -5 18 -18 23 -26 10 -2 -5 -2 -3 -1 4 2 7 -1 15 -6 18 -6 4 -10 1
-10 -5 0 -6 -6 -8 -12 -4 -10 6 -10 4 0 -7 15 -17 16 -53 0 -43 -7 4 -8 3 -4
-5 5 -7 13 -8 24 -2 10 6 23 4 38 -6 21 -13 22 -13 17 5 -5 20 22 39 32 22 4
-6 -2 -10 -12 -11 -13 0 -11 -3 7 -10 22 -9 23 -11 8 -20 -9 -5 -33 -7 -52 -5
-44 6 -57 -10 -16 -19 22 -5 40 -1 66 15 20 11 39 18 42 16 3 -3 15 5 27 18
l23 24 9 -21 c10 -21 10 -21 36 7 30 32 37 23 9 -9 -28 -32 -59 -45 -103 -45
-24 0 -47 -7 -56 -16 -9 -9 -26 -14 -39 -11 -13 2 -21 1 -19 -4 7 -11 -13 -21
-47 -25 -16 -2 -44 -15 -61 -28 -30 -23 -77 -33 -169 -35 -9 -1 -26 -16 -37
-35 -17 -27 -26 -32 -46 -28 -15 2 -25 0 -25 -7 0 -9 -5 -9 -20 -1 -25 14 -98
-4 -107 -26 -4 -11 -13 -14 -31 -9 -15 4 -30 0 -41 -9 -13 -12 -25 -13 -62 -5
-82 18 -200 -31 -211 -87 -2 -15 -13 -19 -51 -21 -32 -1 -68 -13 -113 -37 -37
-19 -73 -32 -82 -29 -10 4 -13 2 -8 -5 4 -7 -9 -19 -33 -32 -24 -12 -42 -16
-46 -10 -3 6 3 10 14 10 24 0 28 15 6 24 -9 3 -24 -3 -35 -14 -11 -11 -23 -20
-26 -20 -3 0 -12 -7 -21 -15 -8 -9 -23 -13 -34 -10 -10 3 -32 -1 -48 -10 -25
-13 -38 -13 -76 -4 -25 6 -54 9 -65 6 -11 -3 -20 -2 -20 3 0 15 -31 20 -52 9
-16 -9 -23 -7 -36 13 -10 12 -18 31 -18 42 -1 10 -5 21 -10 25 -5 3 -40 40
-77 82 -44 50 -67 85 -67 101 0 13 -6 30 -12 37 -7 6 -14 29 -14 49 -4 114
-34 173 -103 198 -53 19 -79 47 -62 68 6 7 22 57 37 111 l26 99 -25 51 c-35
68 -88 263 -83 302 6 41 -3 75 -17 66 -6 -4 -8 0 -4 11 5 12 0 19 -18 26 -35
13 -41 50 -16 91 21 34 27 84 13 105 -4 6 -21 15 -39 18 -42 10 -55 -14 -51
-95 l3 -62 -39 -13 c-72 -25 -69 -18 -62 -222 5 -111 13 -199 21 -222 15 -41
16 -75 12 -294 l-2 -140 -30 -8 c-16 -4 -38 -5 -47 -2 -32 10 -108 -8 -150
-36 -24 -15 -64 -31 -90 -34 -61 -9 -73 -24 -52 -65 15 -29 24 -81 24 -136 0
-11 7 -34 15 -51 11 -23 13 -49 8 -95 -5 -55 -11 -68 -39 -94 -17 -16 -40 -49
-50 -72 -11 -26 -25 -43 -35 -43 -19 0 -39 -47 -39 -91 0 -20 -5 -29 -17 -29
-9 0 -24 -7 -34 -16 -17 -15 -45 -11 -34 6 3 4 -3 7 -12 6 -17 -1 -19 3 -22
39 -1 9 -7 12 -16 8 -9 -3 -13 -8 -11 -11 3 -3 0 -12 -7 -20 -9 -12 -9 -14 0
-9 9 6 11 -5 6 -40 -7 -59 -9 -62 -24 -29 l-13 27 -12 -28 -12 -28 -12 33 c-8
22 -15 30 -20 22 -5 -9 -9 -9 -14 -1 -4 6 -12 8 -18 5 -6 -4 -5 -10 3 -15 8
-5 10 -9 4 -9 -16 1 -40 23 -49 45 l-8 20 -8 -20 -7 -20 -5 20 c-3 18 -6 16
-19 -10 -8 -16 -14 -47 -13 -67 1 -23 -3 -35 -9 -31 -6 3 -16 -2 -23 -12 -11
-15 -16 -16 -29 -5 -8 7 -12 17 -9 22 3 5 7 22 8 37 1 22 -3 27 -21 29 -13 1
-23 -2 -23 -7 0 -4 -11 -20 -25 -35 -13 -14 -25 -30 -26 -34 0 -4 -7 -18 -15
-32 -11 -21 -13 -22 -14 -6 0 16 -3 15 -21 -8 -11 -14 -24 -24 -29 -21 -5 3
-11 -4 -15 -15 -4 -11 -10 -18 -15 -15 -5 3 -7 12 -3 20 3 10 -1 15 -13 15 -9
0 -14 3 -11 6 4 4 -2 19 -12 33 -10 14 -16 32 -14 39 6 17 0 15 -24 -6 -11 -9
-18 -22 -16 -29 2 -7 -1 -21 -7 -32 -9 -17 -8 -20 6 -14 12 4 15 3 10 -5 -11
-19 -33 -14 -39 8 -3 11 -13 20 -22 20 -11 0 -15 5 -12 15 8 20 -5 26 -21 9
-9 -10 -9 -14 -1 -14 8 0 8 -4 1 -13 -6 -7 -7 -18 -2 -26 8 -15 -9 -42 -22
-34 -4 2 -5 -3 -2 -11 3 -9 3 -23 0 -32 -6 -15 -8 -15 -25 2 -10 10 -16 26
-14 34 4 13 4 13 -6 0 -9 -12 -11 -11 -11 8 0 12 -5 22 -11 22 -6 0 -8 -8 -5
-18 5 -14 4 -14 -9 2 -8 11 -15 15 -15 9 0 -6 -6 -10 -14 -9 -28 4 -46 29 -46
62 0 36 11 41 76 35 25 -2 40 25 18 33 -8 3 -13 2 -10 -3 3 -5 -6 -11 -19 -14
-24 -4 -25 -3 -10 13 14 16 14 18 0 24 -9 3 -13 2 -10 -4 10 -16 -47 -34 -67
-21 -22 14 -38 14 -38 0 0 -5 5 -7 12 -3 8 5 9 2 5 -10 -4 -9 -3 -14 2 -11 5
3 13 0 17 -6 5 -9 -3 -10 -31 -6 -46 8 -45 6 -47 51 -1 35 -10 49 -33 52 -5 0
-16 2 -23 2 -7 1 -10 6 -7 12 8 13 -8 13 -23 0 -6 -6 -9 -7 -7 -3 3 4 -5 13
-17 20 -18 9 -19 12 -6 13 9 0 20 -5 23 -10 4 -7 13 -6 27 1 15 8 19 8 14 0
-5 -7 1 -11 14 -11 12 0 19 4 16 9 -4 5 3 7 14 4 11 -3 20 -10 20 -15 0 -5 -6
-6 -12 -2 -8 4 -10 3 -5 -2 5 -5 12 -9 15 -9 4 0 12 -4 19 -8 6 -4 15 -2 19 4
4 7 3 9 -4 5 -6 -3 -13 -2 -17 4 -3 5 3 10 14 10 12 0 21 -6 21 -12 1 -7 6 -4
13 7 7 11 21 22 32 23 17 4 17 1 -5 -17 l-25 -20 23 -1 c12 0 22 4 22 9 0 6 9
8 19 6 11 -2 26 4 33 13 8 9 8 13 1 9 -6 -4 -14 -1 -16 5 -4 10 -6 10 -6 1 -1
-7 -6 -13 -12 -13 -5 0 -7 4 -4 10 3 5 1 10 -5 10 -6 0 -8 6 -4 13 6 9 4 9 -7
-1 -17 -16 -32 -16 -23 1 6 9 4 9 -8 -1 -8 -7 -23 -10 -32 -6 -41 16 3 36 58
27 31 -5 33 -3 34 26 3 53 5 60 14 55 10 -6 11 10 1 19 -10 10 -32 -13 -27
-27 6 -17 -22 -41 -31 -26 -3 5 -3 10 1 10 4 0 0 8 -10 19 -15 17 -15 19 1 32
16 13 17 12 4 -3 -12 -16 -11 -18 5 -18 11 0 24 12 32 27 16 35 15 43 -3 43
-8 0 -15 4 -15 9 0 16 24 18 39 3 11 -11 12 -18 3 -33 -7 -11 -8 -20 -2 -24 5
-3 12 6 16 20 3 14 10 25 15 25 6 0 6 -7 0 -18 -6 -10 -6 -24 -1 -32 6 -9 3
-18 -9 -27 -24 -16 -31 -55 -15 -84 12 -22 12 -21 7 16 -4 31 -1 44 13 55 16
14 16 13 5 -8 -7 -13 -10 -26 -7 -30 3 -3 6 0 6 7 0 7 5 9 10 6 6 -3 10 3 10
15 0 14 4 19 12 14 7 -5 3 4 -9 20 -19 24 -22 63 -4 52 3 -2 6 11 7 29 0 23
-4 31 -12 28 -7 -3 -10 -12 -6 -21 5 -14 3 -15 -10 -5 -8 7 -19 9 -23 5 -7 -6
-5 4 13 48 4 11 1 10 -12 -3 -21 -21 -29 -18 -20 7 10 25 50 17 46 -9 -3 -14
0 -17 7 -10 7 7 6 22 -3 49 -12 34 -15 37 -24 21 -9 -18 -11 -18 -27 -1 -10
10 -26 15 -36 13 -11 -3 -21 -1 -24 4 -3 4 -12 6 -20 2 -11 -4 -15 3 -15 27 0
25 3 30 13 22 15 -13 52 11 45 30 -9 22 -8 33 1 33 5 0 13 3 17 7 4 5 -9 8
-29 8 -30 0 -39 5 -52 30 -9 16 -18 30 -21 30 -3 0 -3 -4 0 -9 4 -5 3 -17 -1
-28 -6 -16 -8 -15 -14 7 -4 14 -7 43 -8 64 -1 24 -8 44 -18 52 -13 10 -14 13
-4 14 8 0 2 10 -15 26 -25 22 -26 25 -9 23 35 -3 45 1 45 16 0 11 13 15 53 15
35 0 60 6 76 19 l24 18 -62 7 c-74 9 -91 14 -91 31 0 6 -15 17 -32 23 -32 10
-31 11 17 9 30 -1 49 -6 48 -13 -3 -16 95 -36 115 -24 10 5 13 10 7 10 -5 0
-3 5 5 11 12 8 9 9 -11 5 -21 -5 -28 -1 -32 14 -7 26 -64 50 -119 50 -24 0
-67 3 -97 7 -44 5 -50 8 -32 15 12 4 20 12 17 17 -7 10 51 21 115 21 60 0 68
10 22 27 -26 9 -45 10 -58 4 -40 -19 -225 -38 -225 -23 0 6 6 13 13 16 9 5 9
7 0 12 -17 8 -16 24 1 24 7 0 16 9 19 20 3 10 21 27 41 37 20 9 36 22 36 29 0
6 11 15 24 18 15 4 23 13 22 23 0 12 7 19 22 21 17 3 21 8 17 21 -4 15 2 20
37 26 l43 8 -38 10 c-36 10 -42 20 -39 60 1 9 -3 17 -9 17 -7 0 -4 11 6 27 16
24 16 27 1 38 -32 24 -18 35 44 35 45 0 60 4 60 14 0 8 5 16 12 18 18 6 -1 28
-25 28 -20 1 -20 2 -4 11 9 6 15 14 12 20 -4 5 -3 9 2 10 21 2 57 10 61 13 2
3 -17 8 -41 11 -66 10 -70 48 -7 60 12 2 29 10 36 16 18 15 3 33 -28 34 -15 0
-22 7 -23 22 -2 30 24 34 73 12 69 -32 168 -51 210 -40 20 5 62 10 92 10 30 1
57 5 61 9 12 14 18 71 8 78 -6 3 -8 12 -5 19 5 15 -20 28 -36 19 -6 -4 -3 -11
8 -18 17 -9 15 -11 -16 -16 -25 -4 -34 -10 -32 -21 3 -21 -37 -38 -70 -28 -15
4 -69 10 -120 13 -51 4 -101 9 -110 12 -35 11 -17 24 32 24 51 0 67 13 30 25
-24 8 -27 25 -3 25 9 0 14 2 12 5 -9 8 -79 -7 -73 -16 3 -5 -6 -13 -19 -18
-32 -12 -95 6 -108 31 -8 15 -6 18 16 18 14 0 25 5 25 10 0 6 -6 10 -14 10 -7
0 -19 6 -25 14 -6 7 -26 17 -44 21 l-32 8 28 4 c18 3 27 10 27 22 0 14 10 18
55 19 30 1 55 -3 55 -8 0 -5 25 -14 55 -20 54 -11 75 -7 113 23 10 8 9 12 -5
22 -19 13 -73 29 -86 26 -5 -1 -6 3 -2 9 3 5 25 9 48 8 23 -1 52 1 65 6 19 6
24 4 29 -13 3 -12 10 -21 17 -22 6 0 0 -5 -14 -10 -19 -8 -21 -12 -11 -19 8
-4 11 -15 8 -24 -9 -22 -2 -23 128 -30 82 -4 103 -2 83 5 -16 6 -28 17 -28 25
0 11 -5 12 -17 6 -10 -5 -24 -7 -31 -5 -10 4 -10 9 3 23 13 15 14 18 2 23 -10
3 -13 15 -10 31 5 25 21 32 61 27 24 -3 13 45 -13 57 -30 14 -55 15 -55 4 0
-5 -6 -17 -14 -27 -25 -35 -6 35 22 79 20 32 22 43 13 58 -14 23 4 25 27 2 10
-10 15 -30 14 -53 l-2 -36 25 30 c14 17 32 50 40 74 14 43 14 46 -7 68 -21 22
-88 34 -88 15 0 -11 -91 -9 -109 2 -12 8 -7 12 20 22 18 7 44 13 57 13 21 1
33 21 12 21 -5 0 -10 5 -10 11 0 8 16 10 52 5 49 -6 51 -5 29 8 -17 9 -45 12
-87 9 -37 -3 -71 0 -81 6 -13 9 -14 11 -3 10 8 -1 22 -1 30 0 12 1 13 3 1 10
-19 12 21 25 49 16 12 -4 27 -1 35 5 8 6 19 9 25 5 5 -3 10 -2 10 4 0 5 -8 12
-18 14 -9 3 -2 5 16 6 21 1 32 6 32 16 0 11 -11 15 -40 15 -22 0 -40 4 -40 9
0 5 -16 9 -35 8 -40 -1 -56 10 -35 23 13 8 12 10 -2 10 -10 0 -18 4 -18 9 0 4
34 7 75 6 42 -1 78 2 81 6 8 14 66 39 89 39 12 0 48 13 81 29 34 17 119 43
199 61 77 17 176 42 220 56 44 13 87 24 95 24 11 1 10 4 -4 15 -11 8 -39 15
-62 15 -37 0 -42 3 -46 25 -5 22 -2 25 26 26 l31 2 -29 4 c-30 5 -56 24 -56
42 0 6 -9 11 -19 11 -27 0 -38 20 -19 34 14 10 12 16 -13 44 -16 18 -33 32
-39 32 -23 0 -38 24 -26 43 9 15 7 21 -9 33 -11 8 -20 18 -20 22 0 4 -6 6 -13
6 -7 -1 -20 11 -29 27 -11 19 -25 29 -38 28 -11 -1 -25 -1 -31 0 -14 1 -36 50
-29 62 4 5 2 9 -4 9 -13 0 -40 51 -35 65 5 12 -46 45 -69 45 -19 0 -39 25 -52
64 -6 18 -22 36 -37 44 -16 7 -28 18 -28 25 0 21 -49 54 -89 61 -21 3 -44 12
-50 20 -7 8 -19 12 -27 9 -9 -3 -14 2 -14 15 0 17 -7 21 -37 24 -28 2 -39 8
-41 22 -2 10 0 21 6 25 5 3 18 22 29 41 32 60 47 80 60 80 6 0 19 20 29 45 15
41 24 50 47 46 16 -3 37 28 31 44 -4 9 -3 15 2 13 5 -1 24 12 41 30 18 19 37
30 43 27 6 -4 8 -11 5 -16 -4 -5 4 -9 17 -9 l23 0 -23 18 c-13 10 -40 27 -60
38 -21 10 -39 22 -42 25 -12 15 -69 37 -113 43 -27 4 -56 9 -65 11 -73 15
-118 28 -143 40 -44 23 -224 20 -329 -7 -109 -27 -189 -28 -250 -5 -8 3 -43 8
-78 10 l-62 5 0 -2499 0 -2499 2530 0 2530 0 0 894 c0 706 -3 895 -12 899 -10
4 -10 6 0 6 9 1 12 334 12 1631 l0 1630 -97 -1 c-54 0 -113 -5 -130 -10z
m-3676 -1585 c-3 -3 -12 -4 -19 -1 -8 3 -5 6 6 6 11 1 17 -2 13 -5z m-378
-228 c9 -11 5 -15 -20 -20 -44 -9 -92 -7 -108 3 -14 9 -9 11 79 24 14 3 28 5
31 6 4 0 12 -5 18 -13z m181 -31 c0 -10 -10 -15 -27 -15 -26 0 -26 1 -7 15 25
19 34 19 34 0z m-230 -221 c0 -14 -3 -14 -15 -4 -8 7 -15 14 -15 16 0 2 7 4
15 4 8 0 15 -7 15 -16z m-175 -138 c19 -8 25 -15 17 -20 -7 -4 -12 -2 -12 3 0
6 -18 11 -40 11 -22 0 -40 5 -40 10 0 14 39 12 75 -4z m412 -23 c-3 -10 -5 -4
-5 12 0 17 2 24 5 18 2 -7 2 -21 0 -30z m-229 -21 c2 -8 -13 -12 -47 -12 -28
0 -51 4 -51 9 0 19 92 21 98 3z m-261 -18 c-3 -3 -12 -4 -19 -1 -8 3 -5 6 6 6
11 1 17 -2 13 -5z m1883 -560 c6 -14 10 -32 10 -41 0 -14 -3 -14 -20 2 -21 19
-28 65 -10 65 6 0 15 -12 20 -26z m0 -191 c19 -15 37 -28 39 -29 1 -2 -6 -33
-17 -71 -12 -37 -25 -88 -29 -113 -7 -39 -15 -49 -57 -77 -65 -44 -76 -43 -76
10 0 44 25 241 35 271 3 9 7 23 10 32 7 21 48 11 95 -23z m1940 12 c0 -8 -4
-15 -9 -15 -13 0 -22 16 -14 24 11 11 23 6 23 -9z m380 -175 c3 -1 9 -2 13 -1
5 1 0 -9 -10 -23 -10 -13 -20 -22 -22 -20 -2 2 2 10 9 19 7 8 10 16 6 16 -3 1
-10 2 -15 3 -5 0 -12 4 -16 8 -6 5 19 4 35 -2z m-58 -72 c-9 -9 -15 -9 -24 1
-11 12 -10 13 6 7 14 -5 17 -3 12 11 -6 15 -5 16 5 6 10 -10 10 -16 1 -25z
m-50 -15 c-3 -16 -7 -22 -10 -15 -4 13 4 42 11 42 2 0 2 -12 -1 -27z m-4152 3
c0 -3 -4 -8 -10 -11 -5 -3 -10 -1 -10 4 0 6 5 11 10 11 6 0 10 -2 10 -4z
m4533 -3 c-7 -2 -19 -2 -25 0 -7 3 -2 5 12 5 14 0 19 -2 13 -5z m-4416 -269
c-3 -3 -12 -4 -19 -1 -8 3 -5 6 6 6 11 1 17 -2 13 -5z m-32 -124 c-3 -5 -12
-10 -18 -10 -7 0 -6 4 3 10 19 12 23 12 15 0z m125 -30 c0 -5 -5 -10 -11 -10
-5 0 -7 5 -4 10 3 6 8 10 11 10 2 0 4 -4 4 -10z m2835 -80 c-3 -4 -17 -10 -32
-13 -24 -4 -25 -3 -11 7 18 14 50 17 43 6z m-2938 -20 c14 -11 21 -20 15 -20
-6 0 -14 5 -17 10 -3 6 -15 10 -25 10 -10 0 -22 5 -25 10 -11 18 26 11 52 -10z
m2393 -150 c0 -5 -7 -10 -15 -10 -8 0 -15 5 -15 10 0 6 7 10 15 10 8 0 15 -4
15 -10z m1560 -14 c0 -2 -7 -7 -16 -10 -8 -3 -12 -2 -9 4 6 10 25 14 25 6z
m-3831 -79 c-2 -2 -11 -8 -20 -15 -12 -9 -16 -9 -16 1 0 7 9 14 20 14 11 1 18
1 16 0z m-12 -59 c-3 -8 -6 -5 -6 6 -1 11 2 17 5 13 3 -3 4 -12 1 -19z m-68
-2 c8 -10 8 -16 -1 -24 -10 -8 -13 -4 -14 14 -2 28 -1 29 15 10z m39 -29 c-1
-13 -7 -24 -13 -24 -7 0 -10 10 -7 24 2 13 8 23 13 23 5 0 8 -10 7 -23z m3387
-35 c-3 -3 -11 0 -18 7 -9 10 -8 11 6 5 10 -3 15 -9 12 -12z m70 -6 c-16 -7
-32 -11 -35 -9 -8 7 24 23 45 22 15 0 13 -3 -10 -13z m-3499 -58 c7 -8 -45
-20 -56 -13 -20 12 -9 23 20 20 17 -1 33 -4 36 -7z m4381 -50 c-3 -8 -6 -5 -6
6 -1 11 2 17 5 13 3 -3 4 -12 1 -19z m-4288 -52 c10 -12 8 -13 -8 -9 -12 3
-18 9 -15 14 7 12 10 11 23 -5z m-43 -11 c12 -8 25 -11 29 -7 5 4 6 2 2 -3 -3
-6 -2 -17 4 -25 7 -12 9 -11 9 5 0 13 3 16 11 8 7 -7 4 -28 -10 -69 -11 -33
-20 -50 -20 -39 -1 15 -3 17 -10 7 -7 -11 -9 -11 -14 2 -7 19 -28 22 -23 4 1
-7 1 -10 -1 -6 -3 4 -4 10 -3 14 1 4 -4 10 -11 15 -8 4 -10 12 -5 16 5 4 11 2
13 -5 3 -6 9 -10 14 -6 5 3 9 0 9 -5 0 -17 27 -13 34 5 6 15 4 15 -11 3 -15
-12 -16 -12 -10 4 4 11 3 16 -3 12 -6 -3 -10 1 -10 9 0 9 7 16 15 16 23 0 7
25 -28 43 -18 9 -25 16 -17 16 9 1 25 -6 36 -14z m-28 -21 c21 -6 21 -7 5 -21
-10 -8 -12 -12 -5 -8 7 4 12 0 12 -9 0 -10 -6 -13 -15 -10 -8 4 -15 12 -15 20
0 8 -4 14 -10 14 -5 0 -10 5 -10 10 0 12 6 12 38 4z m187 -59 c6 0 11 -10 13
-22 4 -28 -23 -32 -32 -5 -3 9 -9 23 -12 31 -5 10 -3 11 7 5 8 -5 19 -9 24 -9z
m3531 -27 c-19 -11 -93 -21 -83 -11 7 6 64 21 87 22 11 0 10 -3 -4 -11z
m-3821 -29 c-7 -11 -35 -12 -35 -1 0 4 9 8 20 9 11 1 18 -2 15 -8z m125 -43
c0 -3 -4 -8 -10 -11 -5 -3 -10 -1 -10 4 0 6 5 11 10 11 6 0 10 -2 10 -4z
m1808 -63 c-4 -22 -22 -20 -26 1 -2 10 3 16 13 16 10 0 15 -7 13 -17z m485
-60 c-7 -2 -19 -2 -25 0 -7 3 -2 5 12 5 14 0 19 -2 13 -5z m422 -73 c3 -5 1
-10 -4 -10 -6 0 -11 5 -11 10 0 6 2 10 4 10 3 0 8 -4 11 -10z m-260 -40 c-3
-5 -14 -10 -23 -9 -14 0 -13 2 3 9 27 11 27 11 20 0z m-145 -120 c0 -5 -8 -10
-17 -10 -15 0 -16 2 -3 10 19 12 20 12 20 0z m-10 -60 c-8 -6 -22 -10 -30 -9
-9 0 -5 6 10 14 27 14 44 10 20 -5z"/>
<path d="M4398 4983 c7 -3 16 -2 19 1 4 3 -2 6 -13 5 -11 0 -14 -3 -6 -6z"/>
<path d="M4319 4960 c-44 -5 -99 -32 -99 -48 0 -4 -12 -9 -26 -10 -15 -1 -32
-6 -38 -11 -6 -5 -27 -8 -46 -8 -20 1 -40 -1 -45 -4 -6 -3 -29 -11 -53 -19
-23 -7 -40 -15 -38 -17 7 -7 -36 -53 -50 -53 -6 0 -25 -7 -40 -15 l-29 -15 25
0 c20 0 22 -2 10 -10 -22 -14 13 -13 104 5 42 8 83 12 90 9 8 -3 17 -1 21 5 3
6 41 11 88 11 47 0 76 4 69 9 -10 6 -10 10 3 21 21 18 19 29 -6 23 -17 -5 -20
-2 -17 18 3 24 22 31 123 43 62 7 115 18 119 24 9 15 -119 47 -165 42z"/>
<path d="M2755 3870 c11 -5 43 -8 70 -8 l50 1 -45 8 c-25 4 -56 8 -70 8 -23 0
-23 -1 -5 -9z"/>
<path d="M2650 3860 c-13 -9 -13 -10 0 -10 8 0 22 5 30 10 13 9 13 10 0 10 -8
0 -22 -5 -30 -10z"/>
<path d="M2908 3853 c7 -3 16 -2 19 1 4 3 -2 6 -13 5 -11 0 -14 -3 -6 -6z"/>
<path d="M1600 3790 c0 -5 7 -10 16 -10 8 0 12 5 9 10 -3 6 -10 10 -16 10 -5
0 -9 -4 -9 -10z"/>
<path d="M3010 3780 c0 -5 5 -10 11 -10 5 0 7 5 4 10 -3 6 -8 10 -11 10 -2 0
-4 -4 -4 -10z"/>
<path d="M3010 3749 c0 -5 5 -7 10 -4 6 3 10 8 10 11 0 2 -4 4 -10 4 -5 0 -10
-5 -10 -11z"/>
<path d="M2826 3625 c-3 -8 -1 -15 4 -15 6 0 10 7 10 15 0 8 -2 15 -4 15 -2 0
-6 -7 -10 -15z"/>
<path d="M1037 2828 c-8 -30 -2 -34 28 -18 32 17 32 40 1 40 -16 0 -26 -7 -29
-22z"/>
<path d="M1065 2780 c3 -5 8 -10 11 -10 2 0 4 5 4 10 0 6 -5 10 -11 10 -5 0
-7 -4 -4 -10z"/>
<path d="M1012 2693 c-23 -9 -1 -23 38 -23 44 0 61 15 27 24 -25 7 -47 7 -65
-1z"/>
<path d="M860 2595 c0 -10 10 -15 34 -15 45 0 55 16 15 24 -45 9 -49 8 -49 -9z"/>
<path d="M703 2413 c9 -2 17 -9 17 -14 0 -6 5 -7 10 -4 16 10 1 25 -23 24 -17
-1 -18 -2 -4 -6z"/>
<path d="M4346 1985 c4 -8 8 -15 10 -15 2 0 4 7 4 15 0 8 -4 15 -10 15 -5 0
-7 -7 -4 -15z"/>
<path d="M4180 1974 c0 -8 5 -12 10 -9 6 4 8 11 5 16 -9 14 -15 11 -15 -7z"/>
<path d="M470 1970 c8 -5 20 -10 25 -10 6 0 3 5 -5 10 -8 5 -19 10 -25 10 -5
0 -3 -5 5 -10z"/>
<path d="M4370 1961 c0 -8 -7 -11 -15 -7 -8 3 -15 1 -15 -4 0 -6 6 -10 14 -10
17 0 31 18 22 27 -3 4 -6 1 -6 -6z"/>
<path d="M4316 1915 c4 -8 7 -15 9 -15 2 0 5 7 9 15 3 9 0 15 -9 15 -9 0 -12
-6 -9 -15z"/>
<path d="M420 1899 c0 -5 5 -7 10 -4 6 3 10 8 10 11 0 2 -4 4 -10 4 -5 0 -10
-5 -10 -11z"/>
<path d="M4340 1908 c0 -4 5 -19 10 -33 8 -21 7 -26 -2 -22 -7 2 -12 9 -11 15
1 5 -4 13 -12 16 -9 3 -15 0 -15 -8 0 -8 7 -16 15 -20 8 -3 15 -10 15 -16 0
-6 -5 -8 -12 -4 -7 5 -8 3 -4 -5 6 -9 13 -8 28 6 16 14 20 14 16 3 -2 -8 1
-20 8 -27 16 -17 21 -16 21 2 0 8 -4 12 -8 10 -6 -4 -15 16 -24 54 -4 15 -25
39 -25 29z"/>
<path d="M670 1840 c20 -13 60 -13 60 0 0 6 -17 10 -37 10 -28 0 -34 -3 -23
-10z"/>
<path d="M4043 1825 c0 -6 6 -12 12 -12 6 0 12 6 12 12 0 6 -6 12 -12 12 -6 0
-12 -6 -12 -12z"/>
<path d="M4238 1823 c-4 -16 0 -18 29 -15 18 2 33 8 33 14 0 5 -10 6 -21 3
-13 -4 -25 -2 -29 5 -5 8 -9 6 -12 -7z"/>
<path d="M4207 1747 c-7 -18 9 -44 20 -33 4 5 3 11 -4 13 -7 2 -9 11 -6 19 3
8 3 14 0 14 -3 0 -7 -6 -10 -13z"/>
<path d="M4245 1720 c-3 -5 3 -10 14 -10 12 0 21 5 21 10 0 6 -6 10 -14 10 -8
0 -18 -4 -21 -10z"/>
<path d="M4511 1714 c0 -11 3 -14 6 -6 3 7 2 16 -1 19 -3 4 -6 -2 -5 -13z"/>
<path d="M4080 1688 c0 -6 3 -8 7 -5 3 4 11 2 18 -3 8 -7 12 -6 12 3 0 7 -9
14 -19 14 -10 1 -18 -3 -18 -9z"/>
<path d="M4135 1691 c-3 -5 -2 -12 3 -15 5 -3 9 1 9 9 0 17 -3 19 -12 6z"/>
<path d="M4260 1691 c23 -7 23 -8 5 -13 l-20 -5 20 1 c29 1 25 21 -5 23 l-25
2 25 -8z"/>
<path d="M738 1663 c12 -2 32 -2 45 0 12 2 2 4 -23 4 -25 0 -35 -2 -22 -4z"/>
<path d="M4308 1663 c7 -3 16 -2 19 1 4 3 -2 6 -13 5 -11 0 -14 -3 -6 -6z"/>
<path d="M4310 1640 c0 -5 4 -10 9 -10 6 0 13 5 16 10 3 6 -1 10 -9 10 -9 0
-16 -4 -16 -10z"/>
<path d="M3958 1563 c6 -2 18 -2 25 0 6 3 1 5 -13 5 -14 0 -19 -2 -12 -5z"/>
<path d="M590 1509 c0 -13 26 -40 33 -33 3 3 3 14 0 25 -6 20 -33 27 -33 8z"/>
<path d="M723 1255 c0 -8 4 -15 9 -15 4 0 8 4 8 9 0 6 -4 12 -8 15 -5 3 -9 -1
-9 -9z"/>
<path d="M783 1230 c0 -19 2 -29 5 -22 2 6 10 12 18 12 8 0 14 7 14 16 0 10
-6 14 -14 11 -8 -3 -16 -1 -19 6 -2 7 -4 -4 -4 -23z"/>
<path d="M802 1197 c-12 -14 2 -47 15 -34 4 5 1 12 -6 16 -11 7 -11 9 0 13 8
3 11 8 8 12 -3 4 -11 1 -17 -7z"/>
<path d="M820 1140 c0 -5 5 -10 10 -10 6 0 10 5 10 10 0 6 -4 10 -10 10 -5 0
-10 -4 -10 -10z"/>
<path d="M1530 1046 c0 -2 7 -7 16 -10 8 -3 12 -2 9 4 -6 10 -25 14 -25 6z"/>
<path d="M696 1003 c-6 -14 -5 -15 5 -6 7 7 10 15 7 18 -3 3 -9 -2 -12 -12z"/>
<path d="M835 1010 c-3 -5 -1 -10 4 -10 6 0 11 5 11 10 0 6 -2 10 -4 10 -3 0
-8 -4 -11 -10z"/>
<path d="M810 980 c0 -5 5 -10 10 -10 6 0 10 5 10 10 0 6 -4 10 -10 10 -5 0
-10 -4 -10 -10z"/>
<path d="M790 953 c6 -14 16 -20 25 -17 18 7 20 17 3 11 -7 -2 -19 3 -26 12
-11 14 -12 13 -2 -6z"/>
<path d="M911 904 c0 -11 3 -14 6 -6 3 7 2 16 -1 19 -3 4 -6 -2 -5 -13z"/>
<path d="M768 885 c-13 -17 -14 -22 -2 -22 8 0 21 8 29 17 13 14 13 19 3 23
-7 2 -21 -5 -30 -18z"/>
<path d="M1380 870 c0 -5 5 -10 10 -10 6 0 10 5 10 10 0 6 -4 10 -10 10 -5 0
-10 -4 -10 -10z"/>
<path d="M704 848 c-4 -6 -3 -8 4 -4 6 3 18 -1 26 -10 9 -9 16 -11 16 -4 0 6
6 8 13 4 6 -4 10 -5 7 -1 -3 3 -9 6 -15 7 -5 1 -18 6 -27 11 -11 6 -19 5 -24
-3z"/>
<path d="M850 840 c0 -5 5 -10 11 -10 5 0 7 5 4 10 -3 6 -8 10 -11 10 -2 0 -4
-4 -4 -10z"/>
<path d="M1030 835 c-11 -13 -10 -14 4 -9 9 3 16 10 16 15 0 13 -6 11 -20 -6z"/>
<path d="M1061 834 c0 -11 3 -14 6 -6 3 7 2 16 -1 19 -3 4 -6 -2 -5 -13z"/>
<path d="M910 830 c0 -5 5 -10 10 -10 6 0 10 5 10 10 0 6 -4 10 -10 10 -5 0
-10 -4 -10 -10z"/>
<path d="M965 830 c3 -5 15 -10 26 -10 10 0 19 5 19 10 0 6 -12 10 -26 10 -14
0 -23 -4 -19 -10z"/>
<path d="M746 738 c3 -4 9 -8 15 -8 5 0 9 4 9 8 0 5 -7 9 -15 9 -8 0 -12 -4
-9 -9z"/>
<path d="M790 741 c0 -4 11 -6 25 -3 14 2 25 6 25 8 0 2 -11 4 -25 4 -14 0
-25 -4 -25 -9z"/>
<path d="M710 685 c0 -8 2 -15 4 -15 2 0 6 7 10 15 3 8 1 15 -4 15 -6 0 -10
-7 -10 -15z"/>
</g>
</svg>
